<mxfile host="app.diagrams.net" modified="2023-04-11T13:40:39.400Z" agent="Mozilla/5.0 (Macintosh; Intel Mac OS X 10_15_7) AppleWebKit/605.1.15 (KHTML, like Gecko) Version/15.3 Safari/605.1.15" version="21.1.2" etag="0BJuasWr3BdkxhqIelLp" type="github">
  <diagram name="第 1 页" id="40x7t2HkQ3WMa1QPrt0m">
    <mxGraphModel>
      <root>
        <mxCell id="0" />
        <mxCell id="1" parent="0" />
      </root>
    </mxGraphModel>
  </diagram>
</mxfile>
